<svg xmlns="http://www.w3.org/2000/svg" viewBox="0 0 52 44"><defs><style>.cls-1{fill:none;stroke:#262626;stroke-linecap:round;stroke-linejoin:round;stroke-width:2px;}</style></defs><g id="Calque_2" data-name="Calque 2"><g id="contenu"><path class="cls-1" d="M20.46,10H12a11,11,0,0,0,0,22h8.46Z"/><path class="cls-1" d="M5,21.05A0,0,0,0,1,5,21,7.05,7.05,0,0,1,12,14a.05.05,0,0,1,0,.1,7,7,0,0,0-6.95,7A0,0,0,0,1,5,21.05Z"/><path class="cls-1" d="M42,41h0a3,3,0,0,1-3-3V4a3,3,0,0,1,3-3h0a3,3,0,0,1,3,3V38A3,3,0,0,1,42,41Z"/><path class="cls-1" d="M45,15a6,6,0,0,1,0,12Z"/><path class="cls-1" d="M22,32v9a2,2,0,0,1-2,2H16a2,2,0,0,1-2-2l-1-9Z"/><path class="cls-1" d="M39,4a6,6,0,0,1-6,6H20.46V32H33a6,6,0,0,1,6,6Z"/><path class="cls-1" d="M28,32a6,6,0,0,1-6,6V32Z"/></g></g></svg>