<svg xmlns="http://www.w3.org/2000/svg" viewBox="0 0 102.23 88.26"><defs><style>.cls-1{fill:#f8f5e5;}.cls-2{fill:#65c1be;}.cls-3{fill:none;stroke:#354093;stroke-linecap:round;stroke-linejoin:round;stroke-width:2px;}</style></defs><g id="Calque_2" data-name="Calque 2"><g id="contenu"><path class="cls-1" d="M45.43,84.94,81.5,68.21A35.75,35.75,0,0,0,98.9,20.73h0A35.75,35.75,0,0,0,51.42,3.33L22,17,.31,71.83A35.78,35.78,0,0,0,45.43,84.94Z"/><path class="cls-2" d="M6.68,68.87A35.76,35.76,0,0,0,24.09,21.39h0a35.44,35.44,0,0,0-2.37-4.29L0,72Z"/><rect class="cls-3" x="42.99" y="28.63" width="9.77" height="25.41" rx="3.14"/><path class="cls-3" d="M52.76,44.27a9.78,9.78,0,0,0,9.78,9.78H80.62A3.43,3.43,0,0,0,84,50.63h0a3.43,3.43,0,0,0-3.42-3.42h1a3.43,3.43,0,0,0,0-6.85h1A3.42,3.42,0,0,0,86,36.94h0a3.42,3.42,0,0,0-3.41-3.42,3.42,3.42,0,0,0,0-6.84H69.38A11.3,11.3,0,0,0,70.56,15c-1.29-2.83-3.44-3.24-4.29-3.24-2.68,0-2,3.91-2.72,6.23C61,25.93,55.43,31.57,52.76,31.57Z"/><line class="cls-3" x1="76.78" y1="33.46" x2="82.58" y2="33.46"/></g></g></svg>