<svg width="233" height="148" viewBox="0 0 233 148" fill="none" xmlns="http://www.w3.org/2000/svg">
<path d="M176.742 60.898L143.392 30.3929L143.391 30.3922C140.703 27.9334 139.067 24.4645 139.067 20.7071C139.067 16.9496 140.703 13.4807 143.391 11.0219C146.058 8.58129 149.558 7.30075 153.096 7.30075C154.86 7.30075 156.619 7.61801 158.276 8.24609C159.934 8.87434 161.476 9.80866 162.802 11.0219L221.365 64.6049C221.367 64.6063 221.368 64.6076 221.37 64.609C222.698 65.822 223.786 67.2951 224.542 68.9615C225.3 70.6318 225.699 72.4464 225.699 74.2958C225.699 76.1452 225.3 77.9598 224.542 79.6301C223.787 81.2958 222.699 82.7683 221.371 83.981L221.365 83.9867M176.742 60.898L221.365 83.9867M176.742 60.898L21.3155 60.8979C17.7797 60.8979 14.282 62.1776 11.6164 64.6166C8.93078 67.0738 7.29507 70.5406 7.29507 74.2958C7.29507 78.0509 8.93077 81.5178 11.6164 83.975C14.282 86.414 17.7797 87.6936 21.3155 87.6936L176.742 87.6936M176.742 60.898L176.742 87.6936M221.365 83.9867L162.802 137.57C160.135 140.01 156.635 141.291 153.096 141.291C149.558 141.291 146.058 140.01 143.391 137.57C140.703 135.111 139.067 131.642 139.067 127.885C139.067 124.127 140.703 120.658 143.391 118.199L143.392 118.199L176.742 87.6936M221.365 83.9867L176.742 87.6936" fill="#101010" stroke="#E51E31" stroke-width="13.3985"/>
</svg>
